<svg xmlns="http://www.w3.org/2000/svg"  viewBox="0 0 48 48" width="144px" height="144px" baseProfile="basic"><path fill="#f96a23" d="M32.65,17c-0.67-1.403-2.231-2.298-3.961-1.908c-1.269,0.286-2.303,1.312-2.594,2.579 C25.569,19.964,27.297,22,29.5,22c1.394,0,2.587-0.821,3.15-2H38v9c0,0.552,0.448,1,1,1h1.75V17H32.65z" opacity=".4"/><path fill="#f96a23" d="M32.65,17c-0.67-1.403-2.231-2.298-3.961-1.908c-1.269,0.286-2.303,1.312-2.594,2.579 C25.569,19.964,27.297,22,29.5,22c1.394,0,2.587-0.821,3.15-2H38v9c0,0.552,0.448,1,1,1h2.5V17H32.65z" opacity=".3"/><path fill="#f96a23" d="M32.65,17c-0.67-1.403-2.231-2.298-3.961-1.908c-1.269,0.286-2.303,1.312-2.594,2.579 C25.569,19.964,27.297,22,29.5,22c1.394,0,2.587-0.821,3.15-2H38v9c0,0.552,0.448,1,1,1h3.25V17H32.65z" opacity=".2"/><path fill="#f96a23" d="M32.65,17c-0.67-1.403-2.231-2.298-3.961-1.908c-1.269,0.286-2.303,1.312-2.594,2.579 C25.569,19.964,27.297,22,29.5,22c1.394,0,2.587-0.821,3.15-2H38v9c0,0.552,0.448,1,1,1h4V17H32.65z" opacity=".1"/><linearGradient id="DJV29A8WsthYnV2LqdC67a" x1="25.5" x2="25.5" y1="17.619" y2="45.458" gradientUnits="userSpaceOnUse"><stop offset="0" stop-color="#fce724"/><stop offset=".311" stop-color="#fdbd19"/><stop offset="1" stop-color="#ff6201"/></linearGradient><path fill="url(#DJV29A8WsthYnV2LqdC67a)" d="M40,15.152C40,10.65,36.35,7,31.848,7H11v26h10v12h5V33h14V15.152z"/><path fill="#fe920e" d="M20,33H3V15.5C3,10.806,6.806,7,11.5,7h0c4.694,0,8.5,3.806,8.5,8.5V33z"/><rect width="7" height="2" x="8" y="12" fill="#fdab14"/><path fill="#f4805d" d="M40,16.6h-7.133c-0.796-1.438-2.464-2.305-4.265-1.899 C24.169,15.699,24.85,22.4,29.5,22.4c1.444,0,2.709-0.808,3.366-2H37.6V29c0,0.773,0.627,1.4,1.4,1.4h1V16.6z" opacity=".4"/><path fill="#f4805d" d="M40,16.2h-6.917c-0.922-1.474-2.696-2.311-4.569-1.889 C23.609,15.415,24.383,22.8,29.5,22.8c1.494,0,2.83-0.795,3.581-2H37.2V29c0,0.993,0.807,1.8,1.8,1.8h1V16.2z" opacity=".3"/><path fill="#f4805d" d="M40,15.8h-6.701c-1.048-1.509-2.928-2.317-4.873-1.879 C23.05,15.13,23.916,23.2,29.5,23.2c1.544,0,2.952-0.782,3.796-2H36.8V29c0,1.214,0.987,2.2,2.2,2.2h1V15.8z" opacity=".2"/><path fill="#f4805d" d="M40,15.4h-6.485c-1.174-1.544-3.16-2.324-5.177-1.869 C22.491,14.845,23.449,23.6,29.5,23.6c1.594,0,3.073-0.769,4.011-2H36.4V29c0,1.434,1.166,2.6,2.6,2.6h1V15.4z" opacity=".1"/><path fill="#f4805d" d="M40,15h-6.269c-1.3-1.58-3.393-2.33-5.48-1.859C21.932,14.561,22.982,24,29.5,24 c1.645,0,3.194-0.756,4.227-2H36v7c0,1.654,1.346,3,3,3h1V15z" opacity=".05"/><linearGradient id="DJV29A8WsthYnV2LqdC67b" x1="16.609" x2="37.609" y1="22.5" y2="22.5" gradientUnits="userSpaceOnUse"><stop offset="0" stop-color="#ffcfae" stop-opacity=".2"/><stop offset="1" stop-color="#f4805d" stop-opacity=".4"/></linearGradient><path fill="url(#DJV29A8WsthYnV2LqdC67b)" d="M32.65,17	c-0.67-1.403-2.231-2.298-3.961-1.908c-1.269,0.286-2.303,1.312-2.594,2.58C25.569,19.964,27.297,22,29.5,22	c1.394,0,2.587-0.821,3.15-2H38v9c0,0.552,0.448,1,1,1h7c0.552,0,1-0.448,1-1V18c0-0.552-0.448-1-1-1H32.65z"/><linearGradient id="DJV29A8WsthYnV2LqdC67c" x1="26" x2="47" y1="22.5" y2="22.5" gradientUnits="userSpaceOnUse"><stop offset="0" stop-color="ivory" stop-opacity=".1"/><stop offset="1" stop-color="#ff9a83" stop-opacity=".3"/></linearGradient><path fill="url(#DJV29A8WsthYnV2LqdC67c)" d="M29.5,15v0.5	c1.16,0,2.194,0.657,2.699,1.715c0.083,0.174,0.259,0.285,0.451,0.285H46c0.276,0,0.5,0.224,0.5,0.5v11c0,0.276-0.224,0.5-0.5,0.5	h-7c-0.276,0-0.5-0.224-0.5-0.5v-9c0-0.276-0.224-0.5-0.5-0.5h-5.35c-0.193,0-0.368,0.111-0.451,0.285	C31.694,20.843,30.66,21.5,29.5,21.5c-0.919,0-1.775-0.413-2.348-1.133c-0.574-0.72-0.781-1.662-0.569-2.585	c0.247-1.075,1.137-1.96,2.217-2.203c0.234-0.053,0.469-0.079,0.701-0.079V15 M29.5,15c-0.264,0-0.535,0.029-0.811,0.092	c-1.269,0.286-2.303,1.312-2.594,2.579C25.569,19.964,27.297,22,29.5,22c1.394,0,2.587-0.821,3.15-2H38v9c0,0.552,0.448,1,1,1h7	c0.552,0,1-0.448,1-1V18c0-0.552-0.448-1-1-1H32.65C32.087,15.821,30.894,15,29.5,15L29.5,15z"/></svg>